{
  "accessors": [
    {
      "bufferView": 2,
      "componentType": 5126,
      "count": 9933,
      "max": [
        59.912391662597656,
        14.011417388916016,
        146.54306030273438
      ],
      "min": [
        -59.912391662597656,
        -14.443272590637207,
        -0.027093999087810516
      ],
      "type": "VEC3"
    },
    {
      "bufferView": 2,
      "byteOffset": 119196,
      "componentType": 5126,
      "count": 9933,
      "max": [
        0.99985522031784058,
        0.99998748302459717,
        0.99994122982025146
      ],
      "min": [
        -0.99995166063308716,
        -0.99997061491012573,
        -0.99997764825820923
      ],
      "type": "VEC3"
    },
    {
      "bufferView": 3,
      "componentType": 5126,
      "count": 9933,
      "max": [
        0.99996525049209595,
        0.99996697902679443,
        0.99637258052825928,
        1
      ],
      "min": [
        -0.99999129772186279,
        -0.99999284744262695,
        -0.99974852800369263,
        -1
      ],
      "type": "VEC4"
    },
    {
      "bufferView": 1,
      "componentType": 5126,
      "count": 9933,
      "max": [
        0.99804699420928955,
        0.99876898527145386
      ],
      "min": [
        0.0048259999603033066,
        0.0034179999493062496
      ],
      "type": "VEC2"
    },
    {
      "bufferView": 0,
      "componentType": 5125,
      "count": 47844,
      "max": [
        9932
      ],
      "min": [
        0
      ],
      "type": "SCALAR"
    },
    {
      "bufferView": 2,
      "byteOffset": 238392,
      "componentType": 5126,
      "count": 1462,
      "max": [
        12.928031921386719,
        13.248170852661133,
        165.02415466308594
      ],
      "min": [
        -12.907950401306152,
        -13.162668228149414,
        112.68873596191406
      ],
      "type": "VEC3"
    },
    {
      "bufferView": 2,
      "byteOffset": 255936,
      "componentType": 5126,
      "count": 1462,
      "max": [
        0.99961787462234497,
        0.99966287612915039,
        0.99987661838531494
      ],
      "min": [
        -0.99993652105331421,
        -0.99990123510360718,
        -0.99982112646102905
      ],
      "type": "VEC3"
    },
    {
      "bufferView": 3,
      "byteOffset": 158928,
      "componentType": 5126,
      "count": 1462,
      "max": [
        0.99987471103668213,
        0.99971342086791992,
        0.99997663497924805,
        1
      ],
      "min": [
        -0.99472337961196899,
        -0.97668558359146118,
        -0.99983590841293335,
        1
      ],
      "type": "VEC4"
    },
    {
      "bufferView": 1,
      "byteOffset": 79464,
      "componentType": 5126,
      "count": 1462,
      "max": [
        0.9960939884185791,
        0.9971889853477478
      ],
      "min": [
        0.0020069999154657125,
        0.0019529999699443579
      ],
      "type": "VEC2"
    },
    {
      "bufferView": 0,
      "byteOffset": 191376,
      "componentType": 5125,
      "count": 7242,
      "max": [
        1461
      ],
      "min": [
        0
      ],
      "type": "SCALAR"
    },
    {
      "bufferView": 2,
      "byteOffset": 273480,
      "componentType": 5126,
      "count": 4035,
      "max": [
        9.6210117340087891,
        9.3515243530273438,
        164.38618469238281
      ],
      "min": [
        -9.6134157180786133,
        -13.202621459960938,
        137.43826293945312
      ],
      "type": "VEC3"
    },
    {
      "bufferView": 2,
      "byteOffset": 321900,
      "componentType": 5126,
      "count": 4035,
      "max": [
        0.99998700618743896,
        0.99414461851119995,
        0.99990522861480713
      ],
      "min": [
        -0.99986809492111206,
        -0.99951165914535522,
        -0.99993723630905151
      ],
      "type": "VEC3"
    },
    {
      "bufferView": 3,
      "byteOffset": 182320,
      "componentType": 5126,
      "count": 4035,
      "max": [
        1,
        0.99993246793746948,
        0.98637789487838745,
        1
      ],
      "min": [
        -0.99740612506866455,
        -0.99999642372131348,
        -0.99145978689193726,
        -1
      ],
      "type": "VEC4"
    },
    {
      "bufferView": 1,
      "byteOffset": 91160,
      "componentType": 5126,
      "count": 4035,
      "max": [
        0.99804699420928955,
        0.99900001287460327
      ],
      "min": [
        0.0013539999490603805,
        0.00097699998877942562
      ],
      "type": "VEC2"
    },
    {
      "bufferView": 0,
      "byteOffset": 220344,
      "componentType": 5125,
      "count": 21000,
      "max": [
        4034
      ],
      "min": [
        0
      ],
      "type": "SCALAR"
    }
  ],
  "asset": {
    "extras": {
      "author": "SSLeaker (https://sketchfab.com/SSLeaker)",
      "license": "CC-BY-4.0 (http://creativecommons.org/licenses/by/4.0/)",
      "source": "https://sketchfab.com/3d-models/pug-outfit-c592169de95f49eaa0932b7828dd22f6",
      "title": "\"Pug\" Outfit"
    },
    "generator": "Sketchfab-5.47.0",
    "version": "2.0"
  },
  "bufferViews": [
    {
      "buffer": 0,
      "byteLength": 304344,
      "byteOffset": 0,
      "name": "floatBufferViews",
      "target": 34963
    },
    {
      "buffer": 0,
      "byteLength": 123440,
      "byteOffset": 304344,
      "byteStride": 8,
      "name": "floatBufferViews",
      "target": 34962
    },
    {
      "buffer": 0,
      "byteLength": 370320,
      "byteOffset": 427784,
      "byteStride": 12,
      "name": "floatBufferViews",
      "target": 34962
    },
    {
      "buffer": 0,
      "byteLength": 246880,
      "byteOffset": 798104,
      "byteStride": 16,
      "name": "floatBufferViews",
      "target": 34962
    }
  ],
  "buffers": [
    {
      "byteLength": 1044984,
      "uri": "scene.bin"
    }
  ],
  "images": [
    {
      "uri": "textures/MI_M_MED_Pug_Body_baseColor.png"
    },
    {
      "uri": "textures/MI_M_MED_Pug_FaceAcc_baseColor.png"
    },
    {
      "uri": "textures/MI_M_MED_Pug_Head_baseColor.png"
    }
  ],
  "materials": [
    {
      "doubleSided": true,
      "name": "MI_M_MED_Pug_Body",
      "pbrMetallicRoughness": {
        "baseColorFactor": [
          1,
          1,
          1,
          1
        ],
        "baseColorTexture": {
          "index": 0,
          "texCoord": 0
        },
        "metallicFactor": 0,
        "roughnessFactor": 0.59999999999999998
      }
    },
    {
      "doubleSided": true,
      "name": "MI_M_MED_Pug_FaceAcc",
      "pbrMetallicRoughness": {
        "baseColorFactor": [
          1,
          1,
          1,
          1
        ],
        "baseColorTexture": {
          "index": 1,
          "texCoord": 0
        },
        "metallicFactor": 0,
        "roughnessFactor": 0.59999999999999998
      }
    },
    {
      "doubleSided": true,
      "name": "MI_M_MED_Pug_Head",
      "pbrMetallicRoughness": {
        "baseColorFactor": [
          1,
          1,
          1,
          1
        ],
        "baseColorTexture": {
          "index": 2,
          "texCoord": 0
        },
        "metallicFactor": 0,
        "roughnessFactor": 0.59999999999999998
      }
    }
  ],
  "meshes": [
    {
      "primitives": [
        {
          "attributes": {
            "NORMAL": 1,
            "POSITION": 0,
            "TANGENT": 2,
            "TEXCOORD_0": 3
          },
          "indices": 4,
          "material": 0,
          "mode": 4
        }
      ]
    },
    {
      "primitives": [
        {
          "attributes": {
            "NORMAL": 6,
            "POSITION": 5,
            "TANGENT": 7,
            "TEXCOORD_0": 8
          },
          "indices": 9,
          "material": 1,
          "mode": 4
        }
      ]
    },
    {
      "primitives": [
        {
          "attributes": {
            "NORMAL": 11,
            "POSITION": 10,
            "TANGENT": 12,
            "TEXCOORD_0": 13
          },
          "indices": 14,
          "material": 2,
          "mode": 4
        }
      ]
    }
  ],
  "nodes": [
    {
      "children": [
        1
      ],
      "name": "RootNode (gltf orientation matrix)",
      "rotation": [
        -0.70710678118654746,
        -0,
        -0,
        0.70710678118654757
      ]
    },
    {
      "children": [
        2
      ],
      "name": "RootNode (model correction matrix)"
    },
    {
      "children": [
        3,
        4,
        5
      ],
      "name": "pugz.obj.cleaner.materialmerger.gles"
    },
    {
      "mesh": 0,
      "name": ""
    },
    {
      "mesh": 1,
      "name": ""
    },
    {
      "mesh": 2,
      "name": ""
    }
  ],
  "samplers": [
    {
      "magFilter": 9729,
      "minFilter": 9987,
      "wrapS": 10497,
      "wrapT": 10497
    }
  ],
  "scene": 0,
  "scenes": [
    {
      "name": "OSG_Scene",
      "nodes": [
        0
      ]
    }
  ],
  "textures": [
    {
      "sampler": 0,
      "source": 0
    },
    {
      "sampler": 0,
      "source": 1
    },
    {
      "sampler": 0,
      "source": 2
    }
  ]
}

